<?xml version="1.0"?>
<svg xmlns="http://www.w3.org/2000/svg" xmlns:xlink="http://www.w3.org/1999/xlink" xmlns:svgjs="http://svgjs.com/svgjs" version="1.1" width="512" height="512" x="0" y="0" viewBox="0 0 512 512.00114" style="enable-background:new 0 0 512 512" xml:space="preserve" class=""><rect width="512" height="512.00114" fill="#000000" shape="square"/><g transform="matrix(0.7,0,0,0.7,76.79824218750002,76.80000000000001)"><path xmlns="http://www.w3.org/2000/svg" d="m122.992188 348.847656-8.792969 65.734375 42.632812-56.820312c-11.484375-2.125-22.796875-5.105469-33.839843-8.914063zm0 0" fill="#ff4500" data-original="#000000" style="" class=""/><path xmlns="http://www.w3.org/2000/svg" d="m116.59375 441.855469c21.835938 15.363281 47.085938 25.167969 73.5625 28.574219l-13.53125-108.527344zm0 0" fill="#ff4500" data-original="#000000" style="" class=""/><path xmlns="http://www.w3.org/2000/svg" d="m95.21875 418.550781 10.3125-77.136719c-6.175781-3.058593-11.945312-6.875-17.179688-11.355468-5.972656 20.378906-12.308593 57.5 6.867188 88.492187zm0 0" fill="#ff4500" data-original="#000000" style="" class=""/><path xmlns="http://www.w3.org/2000/svg" d="m356.554688 265.144531c35.347656 0 64-28.65625 64-64 0-35.347656-28.652344-64-64-64-35.34375 0-64 28.652344-64 64 .042968 35.328125 28.671874 63.960938 64 64zm0-100.570312c20.199218 0 36.574218 16.371093 36.574218 36.570312 0 20.195313-16.375 36.570313-36.574218 36.570313-20.195313 0-36.570313-16.375-36.570313-36.570313 0-20.199219 16.375-36.570312 36.570313-36.570312zm0 0" fill="#ff4500" data-original="#000000" style="" class=""/><path xmlns="http://www.w3.org/2000/svg" d="m374.84375 201.144531c0 10.097657-8.1875 18.285157-18.289062 18.285157-10.097657 0-18.285157-8.1875-18.285157-18.285157 0-10.097656 8.1875-18.285156 18.285157-18.285156 10.101562 0 18.289062 8.1875 18.289062 18.285156zm0 0" fill="#ff4500" data-original="#000000" style="" class=""/><path xmlns="http://www.w3.org/2000/svg" d="m195.148438 363.074219 10.835937 86.855469 36.203125-84.398438c-17.460938-.28125-33.058594-1.152344-47.039062-2.457031zm0 0" fill="#ff4500" data-original="#000000" style="" class=""/><path xmlns="http://www.w3.org/2000/svg" d="m173.699219 201.144531c0 10.097657-8.1875 18.285157-18.285157 18.285157-10.097656 0-18.285156-8.1875-18.285156-18.285157 0-10.097656 8.1875-18.285156 18.285156-18.285156 10.097657 0 18.285157 8.1875 18.285157 18.285156zm0 0" fill="#ff4500" data-original="#000000" style="" class=""/><path xmlns="http://www.w3.org/2000/svg" d="m155.414062 265.144531c35.347657 0 64-28.65625 64-64 0-35.347656-28.652343-64-64-64-35.347656 0-64 28.652344-64 64 .039063 35.328125 28.671876 63.960938 64 64zm0-100.570312c20.199219 0 36.570313 16.371093 36.570313 36.570312 0 20.195313-16.371094 36.570313-36.570313 36.570313-20.199218 0-36.570312-16.375-36.570312-36.570313 0-20.199219 16.371094-36.570312 36.570312-36.570312zm0 0" fill="#ff4500" data-original="#000000" style="" class=""/><path xmlns="http://www.w3.org/2000/svg" d="m355.140625 357.761719 42.632813 56.820312-8.796876-65.734375c-11.042968 3.808594-22.351562 6.789063-33.835937 8.914063zm0 0" fill="#ff4500" data-original="#000000" style="" class=""/><path xmlns="http://www.w3.org/2000/svg" d="m406.441406 341.421875 10.3125 77.128906c19.199219-30.992187 12.800782-68.113281 6.867188-88.527343-5.234375 4.492187-11.007813 8.324218-17.179688 11.398437zm0 0" fill="#ff4500" data-original="#000000" style="" class=""/><path xmlns="http://www.w3.org/2000/svg" d="m441.328125 74.632812-15.175781-67.417968c-.980469-4.25-4.78125-7.2500002-9.144532-7.214844-27.449218-.160156-49.851562 21.921875-50.082031 49.371094-.105469 18.257812-14.96875 32.980468-33.226562 32.914062h-155.429688c-18.25.0625-33.109375-14.660156-33.214843-32.914062-.230469-27.457032-22.652344-49.546875-50.113282-49.371094-4.371094-.0234375-8.175781 2.996094-9.140625 7.261719l-15.269531 67.882812-70.398438 426.261719c-.457031 2.617188.289063 5.300781 2.027344 7.3125 1.804688 2.09375 4.433594 3.292969 7.195313 3.28125h493.257812c2.773438.011719 5.414063-1.199219 7.214844-3.308594 1.738281-2.011718 2.484375-4.695312 2.027344-7.3125zm-84.773437 44.226563c45.445312 0 82.289062 36.839844 82.289062 82.285156 0 45.445313-36.84375 82.285157-82.289062 82.285157-45.441407 0-82.285157-36.839844-82.285157-82.285157.050781-45.425781 36.863281-82.234375 82.285157-82.285156zm-201.140626 0c45.445313 0 82.285157 36.839844 82.285157 82.285156 0 45.445313-36.839844 82.285157-82.285157 82.285157-45.445312 0-82.285156-36.839844-82.285156-82.285157.050782-45.425781 36.859375-82.234375 82.285156-82.285156zm309.320313 187.929687c-2.78125 4.164063-8.390625 5.320313-12.589844 2.589844-5.800781-3.03125-12.261719-4.570312-18.804687-4.480468.574218.628906 1.058594 1.339843 1.433594 2.109374 1.28125 2.742188 31.167968 68.527344-3.144532 122.324219-21.109375 33.085938-61.414062 53.484375-119.964844 61.027344-.125 0-.226562.066406-.355468.066406h-.117188c-18.316406 2.261719-36.753906 3.359375-55.207031 3.289063-18.453125.070312-36.890625-1.035156-55.203125-3.300782h-.121094c-.125 0-.226562-.0625-.355468-.0625-58.515626-7.542968-98.851563-27.941406-119.964844-61.03125-34.3125-53.792968-4.421875-119.550781-3.144532-122.320312.363282-.722656.816407-1.398438 1.355469-2.003906-6.46875-.066406-12.855469 1.414062-18.632812 4.316406-2.71875 1.8125-6.199219 2.039062-9.125.589844-2.929688-1.445313-4.863281-4.34375-5.074219-7.605469-.210938-3.257813 1.332031-6.382813 4.050781-8.199219 1.324219-.914062 32.832031-21.128906 82.925781 8.914063 2.863282 1.652343 4.613282 4.722656 4.574219 8.027343-.039062 3.304688-1.859375 6.332032-4.757812 7.917969-2.902344 1.585938-6.433594 1.480469-9.234375-.273437-9.175782-5.699219-19.234375-9.824219-29.769532-12.203125.453126.816406.773438 1.699219.960938 2.613281 0 0 3.472656 9.480469 25.097656 19.015625.207032.109375.445313.15625.648438.285156 21.988281 9.542969 62.308594 19.035157 135.769531 19.035157 73.234375 0 113.527344-9.371094 135.570313-18.84375.535156-.308594 1.097656-.558594 1.683593-.75 20.789063-9.34375 24.226563-18.550782 24.265625-18.734376.179688-.960937.515625-1.886718.996094-2.742187-10.546875 2.421875-20.617188 6.574219-29.804688 12.289063-4.320312 2.488281-9.835937 1.0625-12.40625-3.210938-2.566406-4.273438-1.238281-9.816406 2.988282-12.460938 50.09375-30.042968 81.609375-9.792968 82.925781-8.914062 2.03125 1.347656 3.4375 3.445312 3.914063 5.835938.476562 2.390624-.023438 4.871093-1.382813 6.890624zm0 0" fill="#ff4500" data-original="#000000" style="" class=""/><path xmlns="http://www.w3.org/2000/svg" d="m215.683594 473.703125c12.589844 1.125 25.984375 1.726563 40.300781 1.726563 14.320313 0 27.710937-.601563 40.300781-1.726563l-40.300781-93.933594zm0 0" fill="#ff4500" data-original="#000000" style="" class=""/><path xmlns="http://www.w3.org/2000/svg" d="m321.859375 470.429688c26.464844-3.414063 51.699219-13.21875 73.527344-28.574219l-59.996094-79.953125zm0 0" fill="#ff4500" data-original="#000000" style="" class=""/><path xmlns="http://www.w3.org/2000/svg" d="m305.988281 449.949219 10.832031-86.859375c-13.976562 1.308594-29.574218 2.175781-47.039062 2.480468zm0 0" fill="#ff4500" data-original="#000000" style="" class=""/></g></svg>
