<svg id="SvgjsSvg1012" width="288" height="288" xmlns="http://www.w3.org/2000/svg" version="1.1" xmlns:xlink="http://www.w3.org/1999/xlink" xmlns:svgjs="http://svgjs.com/svgjs"><defs id="SvgjsDefs1013"></defs><g id="SvgjsG1014"><svg xmlns="http://www.w3.org/2000/svg" width="288" height="288" fill="none" viewBox="0 0 64 64"><path fill="#ff4500" d="M60 17H4C3.73478 17 3.48043 17.1054 3.29289 17.2929C3.10536 17.4804 3 17.7348 3 18C4.59 56.48 59.41 56.46 61 18C61 17.7348 60.8946 17.4804 60.7071 17.2929C60.5196 17.1054 60.2652 17 60 17ZM54.9 19C52.63 48.09 11.36 48.07 9.1 19H54.9ZM32 45C25.0091 45.0048 18.2888 42.2978 13.2531 37.4487C8.21746 32.5995 5.25892 25.9861 5 19H7.1C9.48 50.74 54.53 50.72 56.9 19H59C58.7411 25.9861 55.7825 32.5995 50.7468 37.4487C45.7112 42.2978 38.9909 45.0048 32 45V45Z" class="color000 svgShape"></path><path fill="#ff4500" d="M17.27 23.4498C17.5352 23.4498 17.7896 23.3444 17.9771 23.1569 18.1647 22.9694 18.27 22.715 18.27 22.4498V20.5498C18.27 20.2846 18.1647 20.0302 17.9771 19.8427 17.7896 19.6552 17.5352 19.5498 17.27 19.5498 17.0048 19.5498 16.7504 19.6552 16.5629 19.8427 16.3754 20.0302 16.27 20.2846 16.27 20.5498V22.4498C16.27 22.715 16.3754 22.9694 16.5629 23.1569 16.7504 23.3444 17.0048 23.4498 17.27 23.4498zM21.45 30.1402C21.7152 30.1402 21.9695 30.0349 22.1571 29.8473 22.3446 29.6598 22.45 29.4055 22.45 29.1402V27.2402C22.45 26.975 22.3446 26.7207 22.1571 26.5331 21.9695 26.3456 21.7152 26.2402 21.45 26.2402 21.1847 26.2402 20.9304 26.3456 20.7428 26.5331 20.5553 26.7207 20.45 26.975 20.45 27.2402V29.1402C20.45 29.4055 20.5553 29.6598 20.7428 29.8473 20.9304 30.0349 21.1847 30.1402 21.45 30.1402zM27.76 24.65C28.0252 24.65 28.2796 24.5446 28.4671 24.3571 28.6547 24.1696 28.76 23.9152 28.76 23.65V21.75C28.76 21.4848 28.6547 21.2304 28.4671 21.0429 28.2796 20.8554 28.0252 20.75 27.76 20.75 27.4948 20.75 27.2404 20.8554 27.0529 21.0429 26.8654 21.2304 26.76 21.4848 26.76 21.75V23.65C26.76 23.9152 26.8654 24.1696 27.0529 24.3571 27.2404 24.5446 27.4948 24.65 27.76 24.65zM31.75 31.0899C32.0152 31.0899 32.2696 30.9846 32.4571 30.797 32.6446 30.6095 32.75 30.3552 32.75 30.0899V28.1899C32.75 27.9247 32.6446 27.6704 32.4571 27.4828 32.2696 27.2953 32.0152 27.1899 31.75 27.1899 31.4848 27.1899 31.2304 27.2953 31.0429 27.4828 30.8554 27.6704 30.75 27.9247 30.75 28.1899V30.0899C30.75 30.3552 30.8554 30.6095 31.0429 30.797 31.2304 30.9846 31.4848 31.0899 31.75 31.0899zM27.1499 36.6698C27.4151 36.6698 27.6695 36.5644 27.857 36.3769 28.0445 36.1893 28.1499 35.935 28.1499 35.6698V33.7598C28.1499 33.4945 28.0445 33.2402 27.857 33.0527 27.6695 32.8651 27.4151 32.7598 27.1499 32.7598 26.8847 32.7598 26.6303 32.8651 26.4428 33.0527 26.2553 33.2402 26.1499 33.4945 26.1499 33.7598V35.6698C26.1499 35.8011 26.1758 35.9311 26.226 36.0525 26.2763 36.1738 26.3499 36.284 26.4428 36.3769 26.5357 36.4697 26.6459 36.5434 26.7672 36.5936 26.8885 36.6439 27.0186 36.6698 27.1499 36.6698zM47.75 23.4498C48.0152 23.4498 48.2696 23.3444 48.4571 23.1569 48.6446 22.9694 48.75 22.715 48.75 22.4498V20.5498C48.75 20.2846 48.6446 20.0302 48.4571 19.8427 48.2696 19.6552 48.0152 19.5498 47.75 19.5498 47.4848 19.5498 47.2304 19.6552 47.0429 19.8427 46.8554 20.0302 46.75 20.2846 46.75 20.5498V22.4498C46.75 22.715 46.8554 22.9694 47.0429 23.1569 47.2304 23.3444 47.4848 23.4498 47.75 23.4498zM43.5701 30.1402C43.8353 30.1402 44.0896 30.0349 44.2772 29.8473 44.4647 29.6598 44.5701 29.4055 44.5701 29.1402V27.2402C44.5701 26.975 44.4647 26.7207 44.2772 26.5331 44.0896 26.3456 43.8353 26.2402 43.5701 26.2402 43.3049 26.2402 43.0505 26.3456 42.863 26.5331 42.6754 26.7207 42.5701 26.975 42.5701 27.2402V29.1402C42.5701 29.4055 42.6754 29.6598 42.863 29.8473 43.0505 30.0349 43.3049 30.1402 43.5701 30.1402zM37.26 24.65C37.5252 24.65 37.7796 24.5446 37.9671 24.3571 38.1547 24.1696 38.26 23.9152 38.26 23.65V21.75C38.26 21.4848 38.1547 21.2304 37.9671 21.0429 37.7796 20.8554 37.5252 20.75 37.26 20.75 36.9948 20.75 36.7404 20.8554 36.5529 21.0429 36.3654 21.2304 36.26 21.4848 36.26 21.75V23.65C36.26 23.9152 36.3654 24.1696 36.5529 24.3571 36.7404 24.5446 36.9948 24.65 37.26 24.65zM36.8701 33.7598V35.6698C36.8701 35.935 36.9755 36.1893 37.163 36.3769 37.3505 36.5644 37.6049 36.6698 37.8701 36.6698 38.1353 36.6698 38.3897 36.5644 38.5772 36.3769 38.7648 36.1893 38.8701 35.935 38.8701 35.6698V33.7598C38.8701 33.4945 38.7648 33.2402 38.5772 33.0527 38.3897 32.8651 38.1353 32.7598 37.8701 32.7598 37.6049 32.7598 37.3505 32.8651 37.163 33.0527 36.9755 33.2402 36.8701 33.4945 36.8701 33.7598z" class="color000 svgShape"></path></svg></g></svg>